<?xml version="1.0" encoding="utf-8"?>
<!-- Generator: Adobe Illustrator 21.1.0, SVG Export Plug-In . SVG Version: 6.00 Build 0)  -->
<svg version="1.1" id="Слой_1" xmlns="http://www.w3.org/2000/svg" xmlns:xlink="http://www.w3.org/1999/xlink" x="0px" y="0px"
	 viewBox="0 0 24 24" style="enable-background:new 0 0 24 24;" xml:space="preserve">
<style type="text/css">
	.st0{fill:#C43535;}
	.st1{fill:#492929;}
	.st2{fill:url(#SVGID_1_);}
</style>
<path class="st0" d="M0,12.5C0,18.9,5.4,24,12,24s12-5.1,12-11.5c0-4.4-0.9-8.1-5-9.5c-3-1-6.9,1.5-10,2C3,6,0,6.1,0,12.5z"/>
<path class="st1" d="M11.5,10.6C15.7,8.4,15,5,15,5s-2,2-5,3C6.6,9.1,3.6,8.4,3.6,8.4S7.2,12.8,11.5,10.6z"/>
<path d="M10.4,10.7c0,0-2-1.6-2.2-4.2C7.9,4,8.8,0.7,8.8,0.7s0.3,2.8,0.6,5.6s1.4,4.3,1.4,4.3L10.4,10.7z"/>
<linearGradient id="SVGID_1_" gradientUnits="userSpaceOnUse" x1="1.2475" y1="18.9614" x2="0.9666" y2="18.0798" gradientTransform="matrix(-0.4529 -2.2894 3.2968 -2.8581 -40.8971 61.7911)">
	<stop  offset="1.980198e-02" style="stop-color:#FFFFFF;stop-opacity:0.4"/>
	<stop  offset="5.198020e-02" style="stop-color:#FFFFFF;stop-opacity:0.4"/>
	<stop  offset="1" style="stop-color:#FFFFFF;stop-opacity:0"/>
</linearGradient>
<path class="st2" d="M22.7,10.3C23.9,9,23.1,6.5,21,4.7s-4.6-2.2-5.7-0.9s1.6,2.4,3.6,4.2S21.6,11.6,22.7,10.3z"/>
</svg>
