<?xml version="1.0" encoding="utf-8"?>
<!-- Generator: Adobe Illustrator 21.1.0, SVG Export Plug-In . SVG Version: 6.00 Build 0)  -->
<svg version="1.1" id="Слой_1" xmlns="http://www.w3.org/2000/svg" xmlns:xlink="http://www.w3.org/1999/xlink" x="0px" y="0px"
	 viewBox="0 0 256 256" style="enable-background:new 0 0 256 256;" xml:space="preserve">
<style type="text/css">
	.st0{fill:#333333;}
	.st1{opacity:0.27;fill:#FFFFFF;}
</style>
<path class="st0" d="M64,256H0v-64C0,227.3,28.7,256,64,256z"/>
<path class="st0" d="M0,0h64C46.3,0,30.3,7.2,18.7,18.7S0,46.3,0,64V0z"/>
<path class="st0" d="M256,0v64c0-31.5-22.7-57.7-52.7-63c-3.7-0.7-7.5-1-11.3-1H256z"/>
<path class="st0" d="M256,192v64h-64C227.3,256,256,227.3,256,192z"/>
<path class="st1" d="M256,0v64c0-31.5-22.7-57.7-52.7-63c-3.7-0.7-7.5-1-11.3-1H256z"/>
<path class="st1" d="M256,192v64h-64C227.3,256,256,227.3,256,192z"/>
</svg>
