<?xml version="1.0" encoding="utf-8"?>
<!-- Generator: Adobe Illustrator 21.1.0, SVG Export Plug-In . SVG Version: 6.00 Build 0)  -->
<svg version="1.1" id="Слой_1" xmlns="http://www.w3.org/2000/svg" xmlns:xlink="http://www.w3.org/1999/xlink" x="0px" y="0px"
	 viewBox="0 0 600 600" style="enable-background:new 0 0 600 600;" xml:space="preserve">
<style type="text/css">
	.st0{fill:#333333;}
	.st1{fill:#999999;}
	.st2{fill:#666666;}
	.st3{fill:url(#SVGID_1_);}
	.st4{fill:url(#SVGID_2_);}
	.st5{fill:url(#SVGID_3_);}
	.st6{fill:url(#SVGID_4_);}
</style>
<g>
	<path class="st0" d="M300,5C137.1,5,5,137.1,5,300s132.1,295,295,295s295-132.1,295-295S462.9,5,300,5z M428,428H172V172h256V428z"
		/>
</g>
<g>
	<path class="st1" d="M301.4,58.9l43.1,50c1.4,1.6,0.2,4.1-1.9,4.1h-86.2c-2.1,0-3.3-2.5-1.9-4.1l43.1-50
		C298.6,57.7,300.4,57.7,301.4,58.9z"/>
</g>
<g>
	<path class="st2" d="M301.2,63l38,44.2c1.2,1.4,0.2,3.6-1.7,3.6h-76.1c-1.9,0-2.9-2.2-1.7-3.6l38-44.2C298.7,62,300.3,62,301.2,63z
		"/>
</g>
<g>
	<path class="st1" d="M58.9,298.6l50-43.1c1.6-1.4,4.1-0.2,4.1,1.9v86.2c0,2.1-2.5,3.3-4.1,1.9l-50-43.1
		C57.7,301.4,57.7,299.6,58.9,298.6z"/>
</g>
<g>
	<path class="st2" d="M63,298.8l44.2-38c1.4-1.2,3.6-0.2,3.6,1.7v76.1c0,1.9-2.2,2.9-3.6,1.7l-44.2-38C62,301.3,62,299.7,63,298.8z"
		/>
</g>
<g>
	<path class="st1" d="M297.7,541.2l-43.1-50c-1.4-1.6-0.2-4.1,1.9-4.1h86.2c2.1,0,3.3,2.5,1.9,4.1l-43.1,50
		C300.5,542.4,298.7,542.4,297.7,541.2z"/>
</g>
<g>
	<path class="st2" d="M297.9,537.1l-38-44.2c-1.2-1.4-0.2-3.6,1.7-3.6h76.1c1.9,0,2.9,2.2,1.7,3.6l-38,44.2
		C300.4,538.1,298.8,538.1,297.9,537.1z"/>
</g>
<g>
	<path class="st1" d="M541.2,302.5l-50,43.1c-1.6,1.4-4.1,0.2-4.1-1.9v-86.2c0-2.1,2.5-3.3,4.1-1.9l50,43.1
		C542.4,299.7,542.4,301.5,541.2,302.5z"/>
</g>
<g>
	<path class="st2" d="M537.1,302.2l-44.2,38c-1.4,1.2-3.6,0.2-3.6-1.7v-76.1c0-1.9,2.2-2.9,3.6-1.7l44.2,38
		C538.1,299.8,538.1,301.4,537.1,302.2z"/>
</g>
<g>
	
		<linearGradient id="SVGID_1_" gradientUnits="userSpaceOnUse" x1="5" y1="300" x2="595" y2="300" gradientTransform="matrix(6.123234e-17 1 -1 6.123234e-17 600 0)">
		<stop  offset="0" style="stop-color:#FFFFFF;stop-opacity:0.3"/>
		<stop  offset="3.533499e-02" style="stop-color:#FFFFFF;stop-opacity:0.2576"/>
		<stop  offset="0.25" style="stop-color:#FFFFFF;stop-opacity:0"/>
	</linearGradient>
	<path class="st3" d="M300,5C137.1,5,5,137.1,5,300s132.1,295,295,295s295-132.1,295-295S462.9,5,300,5z M428,428H172V172h256V428z"
		/>
</g>
<g>
	
		<linearGradient id="SVGID_2_" gradientUnits="userSpaceOnUse" x1="5" y1="300" x2="595" y2="300" gradientTransform="matrix(-6.123234e-17 -1 1 -6.123234e-17 0 600)">
		<stop  offset="0" style="stop-color:#FFFFFF;stop-opacity:0.3"/>
		<stop  offset="3.533499e-02" style="stop-color:#FFFFFF;stop-opacity:0.2576"/>
		<stop  offset="0.25" style="stop-color:#FFFFFF;stop-opacity:0"/>
	</linearGradient>
	<path class="st4" d="M300,5C137.1,5,5,137.1,5,300s132.1,295,295,295s295-132.1,295-295S462.9,5,300,5z M428,428H172V172h256V428z"
		/>
</g>
<g>
	
		<linearGradient id="SVGID_3_" gradientUnits="userSpaceOnUse" x1="5" y1="300" x2="595" y2="300" gradientTransform="matrix(-1 0 0 -1 600 600)">
		<stop  offset="0" style="stop-color:#FFFFFF;stop-opacity:0.3"/>
		<stop  offset="4.174289e-02" style="stop-color:#FFFFFF;stop-opacity:0.2576"/>
		<stop  offset="0.2953" style="stop-color:#FFFFFF;stop-opacity:0"/>
	</linearGradient>
	<path class="st5" d="M300,5C137.1,5,5,137.1,5,300s132.1,295,295,295s295-132.1,295-295S462.9,5,300,5z M428,428H172V172h256V428z"
		/>
</g>
<g>
	<g>
		<linearGradient id="SVGID_4_" gradientUnits="userSpaceOnUse" x1="5" y1="300" x2="595" y2="300">
			<stop  offset="0" style="stop-color:#FFFFFF;stop-opacity:0.3"/>
			<stop  offset="3.533499e-02" style="stop-color:#FFFFFF;stop-opacity:0.2576"/>
			<stop  offset="0.25" style="stop-color:#FFFFFF;stop-opacity:0"/>
		</linearGradient>
		<path class="st6" d="M300,5C137.1,5,5,137.1,5,300s132.1,295,295,295s295-132.1,295-295S462.9,5,300,5z M428,428H172V172h256V428z
			"/>
	</g>
</g>
<path class="st0" d="M236,428h-64v-64C172,399.3,200.7,428,236,428z"/>
<path class="st0" d="M172,172h64c-17.7,0-33.7,7.2-45.3,18.7S172,218.3,172,236V172z"/>
<path class="st0" d="M428,172v64c0-35.4-28.7-64-64-64H428z"/>
<path class="st0" d="M428,364v64h-64C399.3,428,428,399.3,428,364z"/>
<rect x="167" y="377" class="st0" width="6" height="51"/>
</svg>
