<?xml version="1.0" encoding="utf-8"?>
<!-- Generator: Adobe Illustrator 21.1.0, SVG Export Plug-In . SVG Version: 6.00 Build 0)  -->
<svg version="1.1" id="Слой_1" xmlns="http://www.w3.org/2000/svg" xmlns:xlink="http://www.w3.org/1999/xlink" x="0px" y="0px"
	 viewBox="0 0 172 256" style="enable-background:new 0 0 172 256;" xml:space="preserve">
<style type="text/css">
	.st0{fill:#333333;}
	.st1{fill:#999999;}
	.st2{fill:#666666;}
	.st3{fill:url(#SVGID_1_);}
	.st4{fill:url(#SVGID_2_);}
	.st5{fill:url(#SVGID_3_);}
	.st6{fill:url(#SVGID_4_);}
	.st7{fill:none;}
	.st8{opacity:0.27;fill:#FFFFFF;}
</style>
<g>
	<path class="st0" d="M138.3,1c-0.2-0.3-0.3-0.7-0.5-1H0v256h137.9c18.7-38.7,29.1-82.1,29.1-128C167,82.5,156.7,39.5,138.3,1z"/>
</g>
<g>
	<path class="st1" d="M113.2,130.5l-50,43.1c-1.6,1.4-4.1,0.2-4.1-1.9V85.5c0-2.1,2.5-3.3,4.1-1.9l50,43.1
		C114.4,127.7,114.4,129.5,113.2,130.5z"/>
</g>
<g>
	<path class="st2" d="M109.1,130.2l-44.2,38c-1.4,1.2-3.6,0.2-3.6-1.7V90.5c0-1.9,2.2-2.9,3.6-1.7l44.2,38
		C110.1,127.8,110.1,129.4,109.1,130.2z"/>
</g>
<g>
	
		<linearGradient id="SVGID_1_" gradientUnits="userSpaceOnUse" x1="-42" y1="130.5" x2="214" y2="130.5" gradientTransform="matrix(0 1 -1 0 214 42)">
		<stop  offset="0" style="stop-color:#FFFFFF;stop-opacity:0.3"/>
		<stop  offset="3.533499e-02" style="stop-color:#FFFFFF;stop-opacity:0.2576"/>
		<stop  offset="0.25" style="stop-color:#FFFFFF;stop-opacity:0"/>
	</linearGradient>
	<path class="st3" d="M138.3,1c-0.2-0.3-0.3-0.7-0.5-1H0v256h137.9c18.7-38.7,29.1-82.1,29.1-128C167,82.5,156.7,39.5,138.3,1z"/>
</g>
<g>
	
		<linearGradient id="SVGID_2_" gradientUnits="userSpaceOnUse" x1="-42" y1="125.5" x2="214" y2="125.5" gradientTransform="matrix(0 -1 1 0 -42 214)">
		<stop  offset="0" style="stop-color:#FFFFFF;stop-opacity:0.3"/>
		<stop  offset="3.533499e-02" style="stop-color:#FFFFFF;stop-opacity:0.2576"/>
		<stop  offset="0.25" style="stop-color:#FFFFFF;stop-opacity:0"/>
	</linearGradient>
	<path class="st4" d="M138.3,1c-0.2-0.3-0.3-0.7-0.5-1H0v256h137.9c18.7-38.7,29.1-82.1,29.1-128C167,82.5,156.7,39.5,138.3,1z"/>
</g>
<g>
	
		<linearGradient id="SVGID_3_" gradientUnits="userSpaceOnUse" x1="5" y1="128" x2="172" y2="128" gradientTransform="matrix(-1 0 0 -1 172 256)">
		<stop  offset="0" style="stop-color:#FFFFFF;stop-opacity:0.3"/>
		<stop  offset="4.174289e-02" style="stop-color:#FFFFFF;stop-opacity:0.2576"/>
		<stop  offset="0.2953" style="stop-color:#FFFFFF;stop-opacity:0"/>
	</linearGradient>
	<path class="st5" d="M138.3,1c-0.2-0.3-0.3-0.7-0.5-1H0v256h137.9c18.7-38.7,29.1-82.1,29.1-128C167,82.5,156.7,39.5,138.3,1z"/>
</g>
<g>
	<g>
		<linearGradient id="SVGID_4_" gradientUnits="userSpaceOnUse" x1="0" y1="128" x2="167" y2="128">
			<stop  offset="0" style="stop-color:#FFFFFF;stop-opacity:0.3"/>
			<stop  offset="3.533499e-02" style="stop-color:#FFFFFF;stop-opacity:0.2576"/>
			<stop  offset="0.25" style="stop-color:#FFFFFF;stop-opacity:0"/>
		</linearGradient>
		<path class="st6" d="M138.3,1c-0.2-0.3-0.3-0.7-0.5-1H0v256h137.9c18.7-38.7,29.1-82.1,29.1-128C167,82.5,156.7,39.5,138.3,1z"/>
	</g>
</g>
<line class="st7" x1="0" y1="1" x2="0" y2="0"/>
<path class="st8" d="M137.9,256c18.7-38.9,29.1-82.5,29.1-128.5c0-45.6-10.3-88.9-28.7-127.5H0v256H137.9z"/>
<rect class="st7" width="172" height="256"/>
</svg>
