<?xml version="1.0" encoding="utf-8"?>
<!-- Generator: Adobe Illustrator 21.1.0, SVG Export Plug-In . SVG Version: 6.00 Build 0)  -->
<svg version="1.1" id="Слой_1" xmlns="http://www.w3.org/2000/svg" xmlns:xlink="http://www.w3.org/1999/xlink" x="0px" y="0px"
	 viewBox="0 0 24 24" style="enable-background:new 0 0 24 24;" xml:space="preserve">
<style type="text/css">
	.st0{fill:none;stroke:#000000;stroke-width:0.75;stroke-miterlimit:10;}
	.st1{stroke:#000000;stroke-width:0.75;stroke-miterlimit:10;}
	.st2{fill:#F4A640;}
	.st3{fill:url(#SVGID_1_);}
</style>
<path class="st0" d="M19.1,3.6c-1.6-1.3-3.5-2.3-5.7-2.5"/>
<path class="st0" d="M20.4,19.1c-1.4,1.6-3.2,2.8-5.3,3.5"/>
<path class="st0" d="M1.5,8.9C1.2,9.9,1,10.9,1,12c0,1.2,0.2,2.4,0.6,3.5"/>
<path class="st0" d="M8.7,22.5c-2.1-0.6-3.9-1.9-5.2-3.5"/>
<path class="st0" d="M22.7,9.3c0.2,0.9,0.3,1.8,0.3,2.7c0,1.3-0.2,2.5-0.6,3.7"/>
<path class="st0" d="M9.5,1.3c-2,0.5-3.8,1.5-5.2,2.9"/>
<path class="st1" d="M23,12c0,1.3-0.2,2.5-0.6,3.7c-0.5,1.3-1.1,2.4-2,3.4c-1.4,1.6-3.2,2.8-5.3,3.5c-1,0.3-2,0.5-3.1,0.5
	c-1.1,0-2.2-0.2-3.2-0.5h0c-2.1-0.6-3.9-1.9-5.2-3.5c-0.9-1-1.5-2.2-2-3.6C1.2,14.4,1,13.2,1,12c0-1.1,0.2-2.1,0.5-3.1
	C2,7.1,3,5.5,4.3,4.2c1.4-1.4,3.2-2.4,5.2-2.9C10.3,1.1,11.1,1,12,1c0.5,0,1,0,1.4,0.1c2.2,0.3,4.1,1.2,5.7,2.5
	c1.7,1.4,3,3.4,3.6,5.6C22.9,10.1,23,11.1,23,12z"/>
<path class="st2" d="M20.4,19.1c-1.4,1.6-3.2,2.8-5.3,3.5c0,0,0-0.1,0-0.1c1-2.1,1-3.1,1-4.2c0,0,0-1-1-3.1C14.1,13,12,12,12,12
	s2.1,0,4.2,1c1.1,0.5,1.6,0.8,2,1.2c0.4,0.4,0.6,0.9,1.1,1.9C19.8,17.1,20.2,18.2,20.4,19.1z"/>
<path class="st2" d="M23,12c0,1.3-0.2,2.5-0.6,3.7c0-0.1-0.1-0.2-0.1-0.3c-1.1-2.1-2-2.7-2.8-3.3c0,0-0.8-0.6-3.2-1
	c-2.3-0.4-4.4,0.8-4.4,0.8s1.2-1.7,3.3-2.8c1.1-0.6,1.6-0.8,2.1-0.9c0.5-0.1,1.1,0,2.2,0.2c1.1,0.2,2.2,0.5,3.1,0.9
	C22.9,10.1,23,11.1,23,12z"/>
<path class="st2" d="M19.1,3.6c-2.2,0.1-3,0.6-3.9,1.1c0,0-0.9,0.5-2.2,2.5c-1.3,1.9-1.2,4.3-1.2,4.3s-1-1.8-1.1-4.2
	c-0.1-1.2-0.1-1.8,0.1-2.3c0.2-0.5,0.5-1,1.1-1.9c0.5-0.7,1.1-1.4,1.6-1.9C15.6,1.4,17.5,2.3,19.1,3.6z"/>
<path class="st2" d="M11.8,11.6c0,0-2.1-0.2-4.1-1.5c-1-0.6-1.5-1-1.9-1.4c-0.3-0.4-0.5-1-0.9-2C4.6,5.9,4.4,5,4.3,4.2
	c1.4-1.4,3.2-2.4,5.2-2.9C8.5,3,8.4,4,8.3,4.9c0,0-0.1,1,0.7,3.2C9.8,10.4,11.8,11.6,11.8,11.6z"/>
<path class="st2" d="M12,12.5c0,0-1.2,1.7-3.2,2.9c-1.1,0.6-1.6,0.9-2.1,1c-0.5,0.1-1.1,0-2.2-0.1c-1-0.1-2.1-0.4-2.9-0.7
	C1.2,14.4,1,13.2,1,12c0-1.1,0.2-2.1,0.5-3.1c0,0.1,0.1,0.2,0.2,0.3c1.2,2,2,2.6,2.9,3.2c0,0,0.9,0.6,3.2,0.9
	C10,13.6,12,12.5,12,12.5z"/>
<path class="st2" d="M12.6,16.7c-0.1,1.2-0.2,1.8-0.4,2.3c-0.2,0.5-0.6,0.9-1.4,1.7c-0.6,0.7-1.4,1.3-2,1.8h0
	c-2.1-0.6-3.9-1.9-5.2-3.5c2.3,0.2,3.2-0.1,4.2-0.5c0,0,1-0.4,2.6-2.1c1.6-1.7,1.9-4,1.9-4S12.9,14.4,12.6,16.7z"/>
<radialGradient id="SVGID_1_" cx="12" cy="12" r="6.2857" gradientUnits="userSpaceOnUse">
	<stop  offset="0" style="stop-color:#000000"/>
	<stop  offset="0.8544" style="stop-color:#000000;stop-opacity:0.1456"/>
	<stop  offset="1" style="stop-color:#000000;stop-opacity:0"/>
</radialGradient>
<circle class="st3" cx="12" cy="12" r="6.3"/>
</svg>
